<svg width="24" height="25" viewBox="0 0 24 25" fill="none" xmlns="http://www.w3.org/2000/svg">
<path d="M24 12.5C24 12.7652 23.8946 13.0196 23.7071 13.2071C23.5196 13.3946 23.2652 13.5 23 13.5H13V23.5C13 23.7652 12.8946 24.0196 12.7071 24.2071C12.5196 24.3946 12.2652 24.5 12 24.5C11.7348 24.5 11.4804 24.3946 11.2929 24.2071C11.1054 24.0196 11 23.7652 11 23.5V13.5H1C0.734784 13.5 0.48043 13.3946 0.292893 13.2071C0.105357 13.0196 0 12.7652 0 12.5C0 12.2348 0.105357 11.9804 0.292893 11.7929C0.48043 11.6054 0.734784 11.5 1 11.5H11V1.5C11 1.23478 11.1054 0.98043 11.2929 0.792893C11.4804 0.605357 11.7348 0.5 12 0.5C12.2652 0.5 12.5196 0.605357 12.7071 0.792893C12.8946 0.98043 13 1.23478 13 1.5V11.5H23C23.2652 11.5 23.5196 11.6054 23.7071 11.7929C23.8946 11.9804 24 12.2348 24 12.5Z" fill="black"/>
</svg>
